#Comment line ignore any data following # character 
#Hierarchical Translation and Rotation (.htr) file 
[Header]	
#Header keywords are followed by a single value 
FileType HTR		#Single word string
DataType HTRS		#Translation followed by rotation and scale data
FileVersion 1		#integer
NumSegments 64		#integer
NumFrames 3		#integer
DataFrameRate 30		#integer, data frame rate in this file
EulerRotationOrder ZYX
CalibrationUnits mm
RotationUnits Degrees
GlobalAxisofGravity Y
BoneLengthAxis Y
ScaleFactor 1.00
[SegmentNames&Hierarchy]
#CHILD	PARENT
Pinger_Root GLOBAL
Pelvis Pinger_Root
L_Hip Pelvis
R_Hip Pelvis
Rear_Leg01 Pelvis
Spine1 Pelvis
L_Leg01 L_Hip
L_Leg02 L_Leg01
L_Leg03 L_Leg02
L_Foot L_Leg03
L_Toe1_01 L_Foot
L_Toe2_01 L_Foot
L_Toe3_01 L_Foot
planeAlignerLeft L_Foot
L_Toe1_02 L_Toe1_01
L_Toe1_03 L_Toe1_02
L_Toe2_02 L_Toe2_01
L_Toe2_03 L_Toe2_02
L_Toe3_02 L_Toe3_01
L_Toe3_03 L_Toe3_02
planeLockWeightLeft planeAlignerLeft
R_Leg01 R_Hip
R_Leg02 R_Leg01
R_Leg03 R_Leg02
R_Foot R_Leg03
planeAlignerRight R_Foot
R_Toe1_01 R_Foot
R_Toe2_01 R_Foot
R_Toe3_01 R_Foot
planeLockWeightRight planeAlignerRight
R_Toe1_02 R_Toe1_01
R_Toe1_03 R_Toe1_02
R_Toe2_02 R_Toe2_01
R_Toe2_03 R_Toe2_02
R_Toe3_02 R_Toe3_01
R_Toe3_03 R_Toe3_02
Rear_Leg02 Rear_Leg01
Rear_Leg03 Rear_Leg02
Rear_Leg04 Rear_Leg03
Rear_Foot Rear_Leg04
planeAlignerCenter Rear_Foot
Rear_Toe1_01 Rear_Foot
Rear_Toe2_01 Rear_Foot
Rear_Toe3_01 Rear_Foot
planeLockWeightCenter planeAlignerCenter
Rear_Toe1_02 Rear_Toe1_01
Rear_Toe1_03 Rear_Toe1_02
Rear_Toe2_02 Rear_Toe2_01
Rear_Toe2_03 Rear_Toe2_02
Rear_Toe3_02 Rear_Toe3_01
Rear_Toe3_03 Rear_Toe3_02
Back_Bone Spine1
Head Spine1
Motor_Bone Back_Bone
Ping_Mechanism Back_Bone
BN_LookIK Head
bottomMouth Head
L_Mouth01 Head
L_mouthFront Head
mouthGun Head
R_Mouth01 Head
R_mouthFront Head
TopMouth Head
weapon_bone Head
[BasePosition]
#SegmentName Tx, Ty, Tz, Rx, Ry, Rz, BoneLength
Pinger_Root 0.000000 0.000000 0.000000 -90.000000 0.000000 0.000000 10.000000 
Pelvis 0.000000 0.000000 0.000000 0.000000 0.000000 0.000000 10.000000 
L_Hip 0.000000 0.000000 0.000000 0.000000 0.000000 0.000000 10.000000 
R_Hip 0.000000 0.000000 0.000000 0.000000 0.000000 0.000000 10.000000 
Rear_Leg01 0.000000 0.000000 0.000000 0.000000 0.000000 0.000000 10.000000 
Spine1 0.000000 0.000000 0.000000 0.000000 0.000000 0.000000 10.000000 
L_Leg01 0.000000 0.000000 0.000000 0.000000 0.000000 0.000000 10.000000 
L_Leg02 0.000000 0.000000 0.000000 0.000000 0.000000 0.000000 10.000000 
L_Leg03 0.000000 0.000000 0.000000 0.000000 0.000000 0.000000 10.000000 
L_Foot 0.000000 0.000000 0.000000 0.000000 0.000000 0.000000 10.000000 
L_Toe1_01 0.000000 0.000000 0.000000 0.000000 0.000000 0.000000 10.000000 
L_Toe2_01 0.000000 0.000000 0.000000 0.000000 0.000000 0.000000 10.000000 
L_Toe3_01 0.000000 0.000000 0.000000 0.000000 0.000000 0.000000 10.000000 
planeAlignerLeft 0.000000 0.000000 0.000000 0.000000 0.000000 0.000000 10.000000 
L_Toe1_02 0.000000 0.000000 0.000000 0.000000 0.000000 0.000000 10.000000 
L_Toe1_03 0.000000 0.000000 0.000000 0.000000 0.000000 0.000000 10.000000 
L_Toe2_02 0.000000 0.000000 0.000000 0.000000 0.000000 0.000000 10.000000 
L_Toe2_03 0.000000 0.000000 0.000000 0.000000 0.000000 0.000000 10.000000 
L_Toe3_02 0.000000 0.000000 0.000000 0.000000 0.000000 0.000000 10.000000 
L_Toe3_03 0.000000 0.000000 0.000000 0.000000 0.000000 0.000000 10.000000 
planeLockWeightLeft 0.000000 0.000000 0.000000 0.000000 0.000000 0.000000 10.000000 
R_Leg01 0.000000 0.000000 0.000000 0.000000 0.000000 0.000000 10.000000 
R_Leg02 0.000000 0.000000 0.000000 0.000000 0.000000 0.000000 10.000000 
R_Leg03 0.000000 0.000000 0.000000 0.000000 0.000000 0.000000 10.000000 
R_Foot 0.000000 0.000000 0.000000 0.000000 0.000000 0.000000 10.000000 
planeAlignerRight 0.000000 0.000000 0.000000 0.000000 0.000000 0.000000 10.000000 
R_Toe1_01 0.000000 0.000000 0.000000 0.000000 0.000000 0.000000 10.000000 
R_Toe2_01 0.000000 0.000000 0.000000 0.000000 0.000000 0.000000 10.000000 
R_Toe3_01 0.000000 0.000000 0.000000 0.000000 0.000000 0.000000 10.000000 
planeLockWeightRight 0.000000 0.000000 0.000000 0.000000 0.000000 0.000000 10.000000 
R_Toe1_02 0.000000 0.000000 0.000000 0.000000 0.000000 0.000000 10.000000 
R_Toe1_03 0.000000 0.000000 0.000000 0.000000 0.000000 0.000000 10.000000 
R_Toe2_02 0.000000 0.000000 0.000000 0.000000 0.000000 0.000000 10.000000 
R_Toe2_03 0.000000 0.000000 0.000000 0.000000 0.000000 0.000000 10.000000 
R_Toe3_02 0.000000 0.000000 0.000000 0.000000 0.000000 0.000000 10.000000 
R_Toe3_03 0.000000 0.000000 0.000000 0.000000 0.000000 0.000000 10.000000 
Rear_Leg02 0.000000 0.000000 0.000000 0.000000 0.000000 0.000000 10.000000 
Rear_Leg03 0.000000 0.000000 0.000000 0.000000 0.000000 0.000000 10.000000 
Rear_Leg04 0.000000 0.000000 0.000000 0.000000 0.000000 0.000000 10.000000 
Rear_Foot 0.000000 0.000000 0.000000 0.000000 0.000000 0.000000 10.000000 
planeAlignerCenter 0.000000 0.000000 0.000000 0.000000 0.000000 0.000000 10.000000 
Rear_Toe1_01 0.000000 0.000000 0.000000 0.000000 0.000000 0.000000 10.000000 
Rear_Toe2_01 0.000000 0.000000 0.000000 0.000000 0.000000 0.000000 10.000000 
Rear_Toe3_01 0.000000 0.000000 0.000000 0.000000 0.000000 0.000000 10.000000 
planeLockWeightCenter 0.000000 0.000000 0.000000 0.000000 0.000000 0.000000 10.000000 
Rear_Toe1_02 0.000000 0.000000 0.000000 0.000000 0.000000 0.000000 10.000000 
Rear_Toe1_03 0.000000 0.000000 0.000000 0.000000 0.000000 0.000000 10.000000 
Rear_Toe2_02 0.000000 0.000000 0.000000 0.000000 0.000000 0.000000 10.000000 
Rear_Toe2_03 0.000000 0.000000 0.000000 0.000000 0.000000 0.000000 10.000000 
Rear_Toe3_02 0.000000 0.000000 0.000000 0.000000 0.000000 0.000000 10.000000 
Rear_Toe3_03 0.000000 0.000000 0.000000 0.000000 0.000000 0.000000 10.000000 
Back_Bone 0.000000 0.000000 0.000000 0.000000 0.000000 0.000000 10.000000 
Head 0.000000 0.000000 0.000000 0.000000 0.000000 0.000000 10.000000 
Motor_Bone 0.000000 0.000000 0.000000 0.000000 0.000000 0.000000 10.000000 
Ping_Mechanism 0.000000 0.000000 0.000000 0.000000 0.000000 0.000000 10.000000 
BN_LookIK 0.000000 0.000000 0.000000 0.000000 0.000000 0.000000 10.000000 
bottomMouth 0.000000 0.000000 0.000000 0.000000 0.000000 0.000000 10.000000 
L_Mouth01 0.000000 0.000000 0.000000 0.000000 0.000000 0.000000 10.000000 
L_mouthFront 0.000000 0.000000 0.000000 0.000000 0.000000 0.000000 10.000000 
mouthGun 0.000000 0.000000 0.000000 0.000000 0.000000 0.000000 10.000000 
R_Mouth01 0.000000 0.000000 0.000000 0.000000 0.000000 0.000000 10.000000 
R_mouthFront 0.000000 0.000000 0.000000 0.000000 0.000000 0.000000 10.000000 
TopMouth 0.000000 0.000000 0.000000 0.000000 0.000000 0.000000 10.000000 
weapon_bone 0.000000 0.000000 0.000000 0.000000 0.000000 0.000000 10.000000 
#Beginning of Data. Separated by tabs
#Fr	Tx	Ty	Tz	Rx	Ry	Rz	SF
[Pinger_Root]
18 2203.703613 0.000000 0.000000 -0.000075 -0.000000 -0.000020 2203.703613
19 2333.333008 0.000000 0.000000 -0.000075 -0.000000 -0.000020 2333.333008
20 2462.962891 0.000000 0.000000 -0.000075 -0.000000 -0.000020 2462.962891
[Pelvis]
18 463.428009 362.383423 4977.246094 48.960190 -77.111130 -88.181305 5011.892578
19 405.284058 356.647400 4961.092773 47.017342 -76.323578 -84.467278 4990.380371
20 352.605591 340.191986 4959.540039 43.607311 -75.091408 -79.341286 4983.683105
[L_Hip]
18 5.766392 125.831482 872.656799 -178.250168 -81.786369 87.376007 881.701050
19 5.766392 125.831482 872.656799 -178.250168 -81.786369 87.376007 881.701050
20 5.766392 125.831482 872.656799 -178.250168 -81.786369 87.376007 881.701050
[R_Hip]
18 5.765438 125.836372 -872.654907 -1.748770 81.786041 87.376961 881.699829
19 5.765438 125.836372 -872.654907 -1.748770 81.786041 87.376961 881.699829
20 5.765438 125.836372 -872.654907 -1.748770 81.786041 87.376961 881.699829
[Rear_Leg01]
18 -192.298416 -925.602966 -0.001907 -177.202530 3.993359 179.655334 945.367432
19 -192.298416 -925.602966 -0.001907 -174.920837 3.437112 -174.185867 945.367432
20 -192.298416 -925.602966 -0.001907 -172.779999 3.014871 -168.585175 945.367432
[Spine1]
18 290.604584 5.007505 0.000477 23.888988 -20.940516 36.471867 290.647736
19 290.604584 5.007505 0.000477 21.657225 -20.601091 36.708195 290.647736
20 290.604584 5.007505 0.000477 18.925777 -20.988049 37.477234 290.647736
[L_Leg01]
18 761.932007 -0.002384 -0.069261 78.209328 -9.888557 -77.685394 761.932068
19 761.932007 -0.002384 -0.069261 78.897156 -9.251433 -78.324860 761.932068
20 761.932007 -0.002384 -0.069261 79.477341 -8.758761 -79.497292 761.932068
[L_Leg02]
18 1441.140503 -0.000954 -0.000715 -1.440775 0.661345 -91.180504 1441.140503
19 1441.140503 -0.000954 -0.000715 -1.448703 0.655310 -89.530670 1441.140503
20 1441.140503 -0.000954 -0.000715 -1.436242 0.673145 -86.729294 1441.140503
[L_Leg03]
18 1686.963989 -0.000715 -0.000954 0.061472 -0.012268 93.305313 1686.963989
19 1686.963989 -0.000715 -0.000954 0.061463 -0.012315 93.393700 1686.963989
20 1686.963989 -0.000715 -0.000954 0.068595 -0.011717 92.047394 1686.963989
[L_Foot]
18 3041.570068 -30.715107 11.297464 -19.953852 12.124934 59.702091 3041.746094
19 3041.570068 -30.715107 11.297464 -20.491611 11.004360 58.935913 3041.746094
20 3041.570068 -30.715107 11.297464 -21.011942 9.877410 58.183556 3041.746094
[L_Toe1_01]
18 -188.216690 -224.732346 -21.137953 89.044357 -1.723277 -153.909729 293.899567
19 -188.216690 -224.732346 -21.137953 89.001045 -1.695247 -152.375214 293.899567
20 -188.216690 -224.732346 -21.137953 88.958549 -1.666078 -150.841034 293.899567
[L_Toe2_01]
18 200.746536 -219.926590 148.838394 -76.002090 -12.038284 -52.509464 332.896027
19 200.746536 -219.926590 148.838394 -75.741936 -11.744598 -53.835262 332.896027
20 200.746536 -219.926590 148.838394 -75.489067 -11.445144 -55.158085 332.896027
[L_Toe3_01]
18 188.832520 -219.859131 -191.078659 -108.157684 14.876214 -54.449760 347.140900
19 188.832520 -219.859131 -191.078659 -108.482117 14.492792 -55.777493 347.140900
20 188.832520 -219.859131 -191.078659 -108.796677 14.102263 -57.100487 347.140900
[planeAlignerLeft]
18 -68.311157 -719.240295 0.009613 0.000000 -90.000000 -90.001900 722.476990
19 -70.634964 -735.932617 0.006905 0.000000 -90.000000 -90.001900 739.314636
20 -72.958778 -752.625000 0.004196 0.000000 -90.000000 -90.001900 756.153015
[L_Toe1_02]
18 413.761139 0.000477 0.000000 0.001388 -25.496168 0.001388 413.761139
19 413.761139 0.000477 0.000000 0.001386 -25.716486 0.001386 413.761139
20 413.761139 0.000477 0.000000 0.001384 -25.936796 0.001384 413.761139
[L_Toe1_03]
18 464.317322 0.000358 -0.000089 0.004733 61.274586 0.004733 464.317322
19 464.317322 0.000358 -0.000089 0.004376 58.885731 0.004376 464.317322
20 464.317322 0.000358 -0.000089 0.004059 56.373413 0.004059 464.317322
[L_Toe2_02]
18 342.235809 -0.000477 0.000238 0.001181 -77.148933 0.001181 342.235809
19 342.235809 -0.000477 0.000238 0.001182 -76.747871 0.001182 342.235809
20 342.235809 -0.000477 0.000238 0.001182 -76.346779 0.001182 342.235809
[L_Toe2_03]
18 420.210846 -0.000715 0.000000 -179.995544 79.394547 -179.992020 420.210846
19 420.210846 -0.000715 0.000000 -179.994461 80.962837 -179.990952 420.210846
20 420.210846 -0.000715 0.000000 -179.992935 82.531052 -179.989426 420.210846
[L_Toe3_02]
18 329.270111 0.000954 0.000000 0.001177 -80.797577 0.001177 329.270111
19 329.270111 0.000954 0.000000 0.001178 -80.426216 0.001178 329.270111
20 329.270111 0.000954 0.000000 0.001178 -80.054871 0.001178 329.270111
[L_Toe3_03]
18 439.137451 -0.001907 0.000954 -179.996567 77.304680 -179.993042 439.137451
19 439.137451 -0.001907 0.000954 -179.995865 78.795456 -179.992355 439.137451
20 439.137451 -0.001907 0.000954 -179.994965 80.286469 -179.991455 439.137451
[planeLockWeightLeft]
18 999.999023 0.098161 0.076219 -0.011826 -0.004376 0.005620 999.999023
19 999.999023 0.098173 0.076215 -0.011826 -0.004376 0.005620 999.999023
20 999.999023 0.098184 0.076212 -0.011826 -0.004376 0.005620 999.999023
[R_Leg01]
18 761.455627 -0.001907 -0.000358 87.812073 -1.086543 79.160545 761.455688
19 761.455627 -0.001907 -0.000358 87.257324 6.782213 72.096397 761.455688
20 761.455627 -0.001907 -0.000358 87.035324 15.406084 63.823727 761.455688
[R_Leg02]
18 1441.140625 0.000000 -0.000238 -0.532185 -0.011246 -144.089279 1441.140625
19 1441.140625 0.000000 -0.000238 -0.715434 -0.100895 -142.921860 1441.140625
20 1441.140625 0.000000 -0.000238 -0.862771 -0.212471 -138.223312 1441.140625
[R_Leg03]
18 1686.963989 0.000954 0.001431 0.015312 -0.006836 113.958344 1686.963989
19 1686.963989 0.000954 0.001431 0.049427 -0.025899 123.637352 1686.963989
20 1686.963989 0.000954 0.001431 0.080161 -0.041756 131.700684 1686.963989
[R_Foot]
18 3041.560059 -30.531288 -11.204481 10.847972 -39.143425 93.118759 3041.734131
19 3041.560059 -30.531288 -11.204481 11.998063 -40.317577 93.277847 3041.734131
20 3041.560059 -30.531288 -11.204481 13.395024 -41.050911 91.799118 3041.734131
[planeAlignerRight]
18 -211.173843 -810.829163 14.282227 0.000000 -89.960434 -90.005180 837.999023
19 -217.139801 -806.225281 14.123077 0.000000 -89.960434 -90.005180 835.073914
20 -223.105774 -801.621460 13.963927 0.000000 -89.960434 -90.005180 832.206726
[R_Toe1_01]
18 -188.383347 -224.864899 21.052242 91.376396 0.750560 -144.710770 294.101532
19 -188.383347 -224.864899 21.052242 91.348846 0.826336 -144.888214 294.101532
20 -188.383347 -224.864899 21.052242 91.321068 0.902027 -145.065689 294.101532
[R_Toe2_01]
18 200.637817 -220.002121 -148.787384 -107.541656 5.878966 -82.468002 332.857574
19 200.637817 -220.002121 -148.787384 -107.589462 6.265343 -82.920692 332.857574
20 200.637817 -220.002121 -148.787384 -107.603050 6.766228 -82.826813 332.857574
[R_Toe3_01]
18 188.606735 -220.092957 191.126343 -67.234375 -8.856112 -83.926323 347.192566
19 188.606735 -220.092957 191.126343 -67.202065 -9.124305 -84.378242 347.192566
20 188.606735 -220.092957 191.126343 -67.211746 -9.475957 -84.283272 347.192566
[planeLockWeightRight]
18 -0.000349 -0.000561 0.076403 -0.011823 -0.004379 -0.000027 0.076406
19 -0.000436 -0.000578 0.076392 -0.011823 -0.004379 -0.000027 0.076395
20 -0.000523 -0.000594 0.076381 -0.011823 -0.004379 -0.000027 0.076385
[R_Toe1_02]
18 413.762085 0.000477 -0.000119 0.001410 -22.626890 0.001410 413.762085
19 413.762085 0.000477 -0.000119 0.001407 -23.028954 0.001407 413.762085
20 413.762085 0.000477 -0.000119 0.001404 -23.431030 0.001404 413.762085
[R_Toe1_03]
18 464.317810 0.000000 0.001088 -0.001076 80.173004 0.001264 464.317810
19 464.317810 0.000000 0.001088 0.005269 78.414848 0.006441 464.317810
20 464.317810 0.000000 0.001088 0.010102 76.657028 0.010102 464.317810
[R_Toe2_02]
18 342.234741 -0.000954 0.000238 -0.002332 -80.202309 -0.002332 342.234741
19 342.234741 -0.000954 0.000238 -0.002331 -80.283272 -0.002331 342.234741
20 342.234741 -0.000954 0.000238 -0.002331 -80.364143 -0.002331 342.234741
[R_Toe2_03]
18 420.210846 0.000715 -0.000268 -179.996017 59.294319 -179.999634 420.210846
19 420.210846 0.000715 -0.000268 -179.996094 58.117741 -179.999741 420.210846
20 420.210846 0.000715 -0.000268 -179.996155 56.941288 -179.999802 420.210846
[R_Toe3_02]
18 329.270355 -0.000477 -0.000954 0.001175 -83.814575 0.001175 329.270355
19 329.270355 -0.000477 -0.000954 0.001175 -83.918205 0.001175 329.270355
20 329.270355 -0.000477 -0.000954 0.001175 -84.021744 0.001175 329.270355
[R_Toe3_03]
18 439.137939 0.000238 0.001431 -179.995056 58.572624 -179.987793 439.137939
19 439.137939 0.000238 0.001431 -179.995361 57.411457 -179.988083 439.137939
20 439.137939 0.000238 0.001431 -179.995651 56.250393 -179.988342 439.137939
[Rear_Leg02]
18 1162.777710 -0.029802 0.005960 -1.901761 1.478636 -157.366043 1162.777710
19 1162.777710 -0.029802 0.005960 -3.628343 2.455637 -152.356079 1162.777710
20 1162.777710 -0.029802 0.005960 -5.060847 3.161083 -146.203445 1162.777710
[Rear_Leg03]
18 607.192505 -0.013351 -0.073195 0.010056 -0.005919 77.314232 607.192505
19 607.192505 -0.013351 -0.073195 0.010036 -0.005952 77.698441 607.192505
20 607.192505 -0.013351 -0.073195 0.010016 -0.005986 78.082634 607.192505
[Rear_Leg04]
18 995.874512 -0.020504 -0.011921 -0.043229 -0.017204 90.755180 995.874573
19 995.874512 -0.020504 -0.011921 -0.043526 -0.016437 92.780525 995.874573
20 995.874512 -0.020504 -0.011921 -0.043650 -0.016106 93.651672 995.874573
[Rear_Foot]
18 3096.176270 -0.067472 -0.041425 153.491653 84.730141 -46.964630 3096.176270
19 3096.176270 -0.067472 -0.041425 143.847748 82.639420 -57.987694 3096.176270
20 3096.176270 -0.067472 -0.041425 141.443680 80.423714 -61.857903 3096.176270
[planeAlignerCenter]
18 0.616913 -73.737633 -695.333740 0.000009 0.000003 -179.999985 699.232849
19 0.615540 -69.201897 -712.749695 0.000009 0.000003 -179.999985 716.101563
20 0.614777 -57.251205 -735.624207 0.000009 0.000003 -179.999985 737.848877
[Rear_Toe1_01]
18 0.653352 83.966492 -371.173737 0.067042 16.779657 90.031029 380.553192
19 0.653352 83.966492 -371.173737 0.067133 18.138296 90.028496 380.553192
20 0.653352 83.966492 -371.173737 0.066422 20.207577 90.030388 380.553192
[Rear_Toe2_01]
18 178.200760 -294.826019 -362.060547 -0.770461 45.405552 -73.580635 499.765686
19 178.200760 -294.826019 -362.060547 -0.775709 46.400814 -73.509125 499.765686
20 178.200760 -294.826019 -362.060547 -0.637146 47.944229 -73.151031 499.765686
[Rear_Toe3_01]
18 -153.359680 -308.780914 -362.060852 0.746957 45.410694 -108.458641 499.952881
19 -153.359680 -308.780914 -362.060852 0.737711 46.404549 -108.550064 499.952881
20 -153.359680 -308.780914 -362.060852 0.576940 47.945393 -108.951180 499.952881
[planeLockWeightCenter]
18 999.999756 0.000264 0.076225 -0.011814 -0.004373 -0.000015 999.999756
19 999.999756 0.000260 0.076238 -0.011814 -0.004373 -0.000015 999.999756
20 999.999817 0.000256 0.076251 -0.011814 -0.004373 -0.000015 999.999817
[Rear_Toe1_02]
18 379.707825 0.194073 0.000477 -0.000767 -33.624729 0.000838 379.707855
19 379.707825 0.194073 0.000477 -0.000767 -33.624729 0.000838 379.707855
20 379.707825 0.194073 0.000477 -0.000767 -33.624729 0.000838 379.707855
[Rear_Toe1_03]
18 500.129700 0.165701 0.000119 -179.989655 82.337509 -179.993149 500.129761
19 500.129700 0.165701 0.000119 -179.987076 84.103729 -179.990585 500.129761
20 500.129700 0.165701 0.000119 -179.973083 87.383415 -179.976578 500.129761
[Rear_Toe2_02]
18 340.494507 0.000238 -0.000954 0.001185 -73.972778 0.001185 340.494507
19 340.494507 0.000238 -0.000954 0.001186 -73.614113 0.001186 340.494507
20 340.494507 0.000238 -0.000954 0.001185 -73.821358 0.001185 340.494507
[Rear_Toe2_03]
18 433.103577 0.000000 0.000238 0.009939 76.436554 0.009939 433.103546
19 433.103577 0.000000 0.000238 0.009505 75.814674 0.009505 433.103546
20 433.103577 0.000000 0.000238 0.009585 75.933823 0.009585 433.103546
[Rear_Toe3_02]
18 340.494141 -0.000358 -0.000477 0.001185 -74.003738 0.001185 340.494171
19 340.494141 -0.000358 -0.000477 0.001186 -73.638802 0.001186 340.494171
20 340.494141 -0.000358 -0.000477 0.001185 -73.827492 0.001185 340.494171
[Rear_Toe3_03]
18 433.103577 0.001431 -0.000238 0.009980 76.493202 0.009980 433.103546
19 433.103577 0.001431 -0.000238 0.009534 75.858551 0.009534 433.103546
20 433.103577 0.001431 -0.000238 0.009598 75.952637 0.009598 433.103546
[Back_Bone]
18 1312.175781 -701.934692 0.000954 -0.529539 -3.650512 -81.000999 1488.125488
19 1312.175781 -701.934692 0.000954 -0.094081 -3.656273 -82.832481 1488.125488
20 1312.175781 -701.934692 0.000954 0.341339 -3.648141 -84.663963 1488.125488
[Head]
18 1406.159424 809.709290 0.001431 6.411397 -6.964315 4.408513 1622.625488
19 1406.159424 809.709290 0.001431 6.834788 -7.136866 4.291384 1622.625488
20 1406.159424 809.709290 0.001431 7.258707 -7.308557 4.172927 1622.625488
[Motor_Bone]
18 1158.364380 -417.834747 0.000477 5.387621 -1.836375 -107.820099 1231.419434
19 1158.364380 -417.834747 0.000477 -0.064466 0.133410 -105.853729 1231.419434
20 1158.364380 -417.834747 0.000477 -5.513655 1.191246 -104.796577 1231.419434
[Ping_Mechanism]
18 1169.235229 -389.668579 14.031982 0.000103 -0.000053 82.120995 1232.537842
19 1165.999268 -388.533020 20.552357 0.000103 -0.000053 82.120995 1229.200806
20 1162.763306 -387.397430 27.072754 0.000103 -0.000053 82.120995 1225.898926
[BN_LookIK]
18 193.241119 1380.371704 -0.002861 0.000000 89.965736 -31.038179 1393.832153
19 193.241119 1380.371704 -0.002861 0.000000 89.965736 -31.038179 1393.832153
20 193.241119 1380.371704 -0.002861 0.000000 89.965736 -31.038179 1393.832153
[bottomMouth]
18 -435.092926 615.759399 -0.000954 -0.000022 0.000016 73.527184 753.966492
19 -435.092926 615.759399 -0.000954 -0.000022 0.000016 73.527184 753.966492
20 -435.092926 615.759399 -0.000954 -0.000022 0.000016 73.527184 753.966492
[L_Mouth01]
18 554.440979 7.658243 838.222046 150.204178 23.759130 109.605339 1005.027161
19 554.440979 7.658243 838.222046 150.204178 23.759130 109.605339 1005.027161
20 554.440979 7.658243 838.222046 150.204178 23.759130 109.605339 1005.027161
[L_mouthFront]
18 551.629089 934.514771 339.150421 0.000081 2.804060 79.119301 1136.941284
19 551.629089 934.514771 339.150421 0.000081 2.804060 79.119301 1136.941284
20 551.629089 934.514771 339.150421 0.000081 2.804060 79.119301 1136.941284
[mouthGun]
18 55.332661 1627.420898 0.000000 0.000023 0.000009 -11.038128 1628.361328
19 55.332661 1627.420898 0.000000 0.000023 0.000009 -11.038128 1628.361328
20 55.332661 1627.420898 0.000000 0.000023 0.000009 -11.038128 1628.361328
[R_Mouth01]
18 554.442383 7.659197 -838.223938 29.795891 -23.759109 109.605331 1005.029541
19 554.442383 7.659197 -838.223938 29.795891 -23.759109 109.605331 1005.029541
20 554.442383 7.659197 -838.223938 29.795891 -23.759109 109.605331 1005.029541
[R_mouthFront]
18 551.629089 934.514282 -339.151367 0.000029 -2.803930 79.119133 1136.941162
19 551.629089 934.514282 -339.151367 0.000029 -2.803930 79.119133 1136.941162
20 551.629089 934.514282 -339.151367 0.000029 -2.803930 79.119133 1136.941162
[TopMouth]
18 461.269867 -56.106091 -0.008583 -0.000059 -0.000268 92.025169 464.669525
19 461.269867 -56.106091 -0.008583 -0.000059 -0.000268 92.025169 464.669525
20 461.269867 -56.106091 -0.008583 -0.000059 -0.000268 92.025169 464.669525
[weapon_bone]
18 -987.239868 1448.372803 0.001431 0.000000 89.965736 -31.038221 1752.833740
19 -987.239868 1448.372803 0.001431 0.000000 89.965736 -31.038221 1752.833740
20 -987.239868 1448.372803 0.001431 0.000000 89.965736 -31.038221 1752.833740
